<svg id="star" width="23" height="22" viewBox="0 0 23 22" fill="none" xmlns="http://www.w3.org/2000/svg">
<path d="M10.5767 2.21993C10.9183 1.39864 12.0817 1.39864 12.4233 2.21993L14.4395 7.06735C14.5835 7.41358 14.9091 7.65015 15.2829 7.68012L20.5161 8.09966C21.4027 8.17074 21.7623 9.27725 21.0867 9.85592L17.0996 13.2713C16.8148 13.5153 16.6904 13.8981 16.7774 14.2628L17.9956 19.3695C18.202 20.2348 17.2607 20.9186 16.5016 20.455L12.0213 17.7184C11.7012 17.5229 11.2988 17.5229 10.9787 17.7184L6.4984 20.455C5.7393 20.9186 4.79805 20.2348 5.00444 19.3695L6.22257 14.2628C6.30958 13.8981 6.18521 13.5153 5.90042 13.2713L1.91328 9.85592C1.23774 9.27725 1.59727 8.17074 2.48392 8.09966L7.71712 7.68012C8.09091 7.65015 8.41652 7.41358 8.56052 7.06735L10.5767 2.21993Z" fill="#F1B312" stroke="#F1B312" stroke-width="2"/>
</svg>
