<?xml version="1.0" encoding="UTF-8"?><!DOCTYPE svg PUBLIC "-//W3C//DTD SVG 1.1//EN" "http://www.w3.org/Graphics/SVG/1.1/DTD/svg11.dtd"><svg xmlns="http://www.w3.org/2000/svg" xmlns:xlink="http://www.w3.org/1999/xlink"><symbol id="business">
    <path d="M13.667 44.417h10.25v3.416h-10.25v-3.416Zm0 17.083h10.25v-3.417h-10.25V61.5Zm17.083 0H41v-3.417H30.75V61.5Zm-17.083-41h10.25v-3.417h-10.25V20.5Zm0 13.667h10.25V30.75h-10.25v3.417ZM30.75 47.833H41v-3.416H30.75v3.416Zm0-27.333H41v-3.417H30.75V20.5Zm0 13.667H41V30.75H30.75v3.417ZM61.5 61.5h6.833v-3.417H61.5V61.5Zm0-27.333h6.833V30.75H61.5v3.417Zm0 13.666h6.833v-3.416H61.5v3.416ZM82 25.625V82H0V8.542C0 3.83 3.833 0 8.542 0h37.583c4.708 0 8.542 3.83 8.542 8.542v8.541h18.791c4.709 0 8.542 3.83 8.542 8.542ZM51.25 8.542c0-2.826-2.3-5.125-5.125-5.125H8.542a5.131 5.131 0 0 0-5.125 5.125v70.041H51.25V8.542Zm27.333 17.083c0-2.826-2.3-5.125-5.125-5.125H54.667v58.083h23.916V25.625Z"/>
</symbol><symbol id="car">
    <path d="M82.003 53.49c0-9.346-1.62-18.533-4.81-27.307L69.867 6.042A8.566 8.566 0 0 0 61.842.418h-41.68a8.565 8.565 0 0 0-8.026 5.624L4.811 26.183A79.574 79.574 0 0 0 0 53.49v8.432h6.833v13.667h17.084V61.921h34.166v13.667h17.084V61.921H82l.003-8.432ZM15.348 7.21a5.137 5.137 0 0 1 4.814-3.372h41.68a5.136 5.136 0 0 1 4.814 3.372l7.325 20.142c.048.133.079.27.127.403H7.895c.048-.133.079-.27.126-.403L15.348 7.21Zm5.155 64.961h-10.25v-10.25h10.25v10.25Zm10.25-13.666V51.67h20.5v6.834h-20.5Zm41 13.666h-10.25v-10.25h10.25v10.25Zm6.834-13.666H54.67v-10.25H27.337v10.25H3.42v-5.016c0-4.062.362-8.087.998-12.068h9.252v-3.416H5.067A75.312 75.312 0 0 1 6.82 31.17h68.367a75.332 75.332 0 0 1 1.753 6.834h-8.603v3.416h9.252c.636 3.977.998 8.002.998 12.068v5.016Z"/>
</symbol><symbol id="health">
    <path fill-rule="evenodd" clip-rule="evenodd" d="M25.15 11.96c-9.16 0-16.608 7.352-16.608 16.319 0 5.625 1.88 10.53 6.035 15.989 3.586 4.711 8.782 9.25 14.39 14.14l.002.003c3.37 2.953 8.16 7.3 11.964 10.978l1.556-1.458c3.458-3.243 7.439-6.978 10.362-9.523l.007-.006c6.623-5.71 11.992-10.428 15.762-15.896l.018-.027c3.297-4.591 4.82-9.326 4.82-14.2 0-8.95-7.43-16.32-16.609-16.32-3.64 0-6.41.8-8.652 2.162-2.257 1.37-4.095 3.377-5.76 5.967l-1.441 2.243-1.436-2.247c-1.653-2.588-3.486-4.594-5.742-5.963-2.242-1.36-5.016-2.161-8.667-2.161ZM5.126 28.279c0-10.908 9.033-19.736 20.026-19.736 4.181 0 7.588.926 10.44 2.657 2.133 1.294 3.892 3 5.412 4.986 1.527-1.986 3.288-3.692 5.421-4.986 2.852-1.73 6.253-2.657 10.425-2.657 11.016 0 20.026 8.85 20.026 19.736 0 5.64-1.778 11.059-5.451 16.18-4.062 5.887-9.784 10.882-16.332 16.528-2.87 2.498-6.779 6.165-10.23 9.402-.977.917-1.918 1.8-2.788 2.612l-1.197 1.116-1.167-1.148c-3.885-3.823-9.294-8.748-12.991-11.987h-.001l-.138-.12c-5.482-4.784-10.914-9.523-14.721-14.525M5.125 28.28c0 6.54 2.24 12.154 6.733 18.058L5.125 28.279Z"/>
    <path fill-rule="evenodd" clip-rule="evenodd" d="M31.318 25.879 37.4 40.22l2.618-5.616 3.278 4.31 4.81-10.114 7.255 13.248h23.225a1.708 1.708 0 0 1 0 3.417H53.337l-5.016-9.16-4.349 9.143-3.248-4.272-3.47 7.448-5.511-12.992-3.193 9.833H3.42a1.708 1.708 0 0 1 0-3.417h22.647l5.25-16.17Z"/>
</symbol><symbol id="home">
    <path d="m78.737 27.454-6.987-5.49V6.837h-3.417v12.44L46.28 1.942a8.506 8.506 0 0 0-10.558 0L3.263 27.454A8.494 8.494 0 0 0 0 34.17v47.833h82V34.171a8.499 8.499 0 0 0-3.263-6.717Zm-.154 51.134H3.417V34.17c0-1.582.714-3.051 1.957-4.028L37.833 4.627a5.117 5.117 0 0 1 6.334 0l32.459 25.516a5.094 5.094 0 0 1 1.957 4.028v44.417Zm-51.25-17.084h27.334V34.171H27.333v27.333Zm3.417-23.916h20.5v20.5h-20.5v-20.5Z"/>
</symbol><symbol id="key">
    <path d="M77.497 34.652 64.753 21.908C63.314 9.409 52.757 0 40.146 0 27.924 0 17.743 8.897 15.737 20.555 6.947 21.245 0 28.618 0 37.583 0 43.716 3.277 49.261 8.617 52.3v5.572c0 .462.188.902.516 1.224l3.05 2.976-3.047 3.047a1.71 1.71 0 0 0 0 2.416l3.062 3.061-3.062 3.061a1.71 1.71 0 0 0 0 2.416l4.5 4.503a4.877 4.877 0 0 0 3.444 1.418c1.247 0 2.49-.475 3.44-1.421l2.6-2.604a8.479 8.479 0 0 0 2.502-6.04V52.306c5.295-3.062 8.541-8.614 8.541-14.73 0-5.66-2.836-10.947-7.592-14.13a1.7 1.7 0 0 0-2.367.467 1.703 1.703 0 0 0 .468 2.368c3.802 2.552 6.075 6.772 6.075 11.296 0 5.169-2.911 9.836-7.6 12.177-.576.29-.942.881-.942 1.527v20.643c0 1.35-.547 2.669-1.5 3.625l-2.6 2.604c-.57.567-1.49.567-2.053 0l-3.294-3.294 3.061-3.061a1.71 1.71 0 0 0 0-2.416l-3.061-3.061 3.061-3.061a1.7 1.7 0 0 0 .499-1.217 1.725 1.725 0 0 0-.516-1.213l-3.772-3.68v-5.88a1.71 1.71 0 0 0-.953-1.534c-4.729-2.32-7.664-6.976-7.664-12.153 0-6.963 5.231-12.723 11.972-13.56-.007.249-.013.498-.013.748v3.02a3.418 3.418 0 1 0 5.125 2.959 3.414 3.414 0 0 0-1.709-2.959v-3.02c0-11.774 9.58-21.354 21.354-21.354 10.845 0 19.93 8.07 21.204 18.805L48.92 34.648a15.476 15.476 0 0 0-4.503 10.872v22.813c0 7.538 6.13 13.667 13.666 13.667h10.25C75.871 82 82 75.87 82 68.333V45.52c0-4.049-1.64-8.008-4.503-10.872v.004Zm1.086 33.681c0 5.651-4.599 10.25-10.25 10.25h-10.25c-5.65 0-10.25-4.599-10.25-10.25V45.52c0-3.147 1.278-6.228 3.502-8.456l11.873-11.873 11.873 11.873a12.048 12.048 0 0 1 3.502 8.456v22.813Z"/>
</symbol><symbol id="life">
    <path d="m74.975 37.976-11.23-3.724a1.695 1.695 0 0 0-1.073 0l-11.23 3.724a10.239 10.239 0 0 0-7.025 9.73V59.43c0 12.345 13.215 19.92 17.267 21.946l.766.382c.239.12.499.181.765.181.215 0 .434-.04.642-.123l.79-.32c4.069-1.637 17.356-8.067 17.356-22.066V47.707c0-4.428-2.825-8.337-7.028-9.73Zm3.608 21.45c0 11.852-11.644 17.46-15.218 18.894l-.075.034-.075-.037c-3.608-1.804-15.378-8.504-15.378-18.887V47.706a6.82 6.82 0 0 1 4.68-6.485l10.695-3.546 10.694 3.546a6.822 6.822 0 0 1 4.68 6.485v11.722l-.003-.003ZM27.333 0c-11.305 0-20.5 9.194-20.5 20.5S16.028 41 27.333 41c11.306 0 20.5-9.194 20.5-20.5S38.64 0 27.333 0Zm0 37.583c-9.42 0-17.083-7.663-17.083-17.083 0-9.42 7.664-17.083 17.083-17.083 9.42 0 17.084 7.663 17.084 17.083 0 9.42-7.664 17.083-17.084 17.083Zm10.155 13.985a1.711 1.711 0 0 1-2.184 1.042 23.773 23.773 0 0 0-7.97-1.36c-13.186 0-23.917 10.728-23.917 23.917v5.125a1.709 1.709 0 0 1-3.417 0v-5.125c0-15.071 12.262-27.334 27.333-27.334 3.123 0 6.191.523 9.113 1.555a1.713 1.713 0 0 1 1.042 2.18Z"/>
</symbol><symbol id="medic">
    <path d="M46.125 3.417H8.542a5.131 5.131 0 0 0-5.125 5.125v70.041H41V82H0V8.542C0 3.834 3.83 0 8.542 0h37.583c4.712 0 8.542 3.833 8.542 8.542v29.12a17.444 17.444 0 0 0-3.417 3.461V8.542c0-2.826-2.3-5.125-5.125-5.125ZM23.917 47.833h-10.25v3.417h10.25v-3.417Zm6.833 3.417H41v-3.417H30.75v3.417ZM13.667 64.917h10.25V61.5h-10.25v3.417Zm17.083 0H41V61.5H30.75v3.417Zm42.708 0H56.375c-4.712 0-8.542 3.833-8.542 8.541V82h3.417v-8.542c0-2.825 2.3-5.125 5.125-5.125h17.083c2.826 0 5.125 2.3 5.125 5.125V82H82v-8.542c0-4.708-3.83-8.541-8.542-8.541ZM54.667 51.25c0-5.651 4.599-10.25 10.25-10.25 5.65 0 10.25 4.599 10.25 10.25s-4.6 10.25-10.25 10.25c-5.651 0-10.25-4.599-10.25-10.25Zm3.416 0a6.84 6.84 0 0 0 6.834 6.833 6.84 6.84 0 0 0 6.833-6.833 6.84 6.84 0 0 0-6.833-6.833 6.84 6.84 0 0 0-6.834 6.833ZM29.042 34.167v-8.542h8.541v-3.417h-8.541v-8.541h-3.417v8.541h-8.542v3.417h8.542v8.542h3.417Z"/>
</symbol><symbol id="moto">
    <path d="M64.917 27.583c-1.22 0-2.406.13-3.554.373l-3.003-9.382c.485-.144.974-.264 1.473-.36 2.121-.402 3.833-.727 5.265-.83.813 3.868 4.25 6.783 8.357 6.783 2.826 0 5.125-2.3 5.125-5.125v-6.834c0-2.825-2.3-5.125-5.125-5.125-4.141 0-7.602 2.963-8.378 6.878-1.712.106-3.584.461-5.88.899-.639.12-1.264.276-1.882.46l-2.163-6.757A11.919 11.919 0 0 0 43.764.25h-7.896a1.709 1.709 0 0 0 0 3.417h7.896a8.507 8.507 0 0 1 8.132 5.938l2.241 7.004a18.914 18.914 0 0 0-5.357 4.141H28.854a8.83 8.83 0 0 0-.731-2.115 8.497 8.497 0 0 0-7.64-4.718H8.542a1.709 1.709 0 0 0 0 3.416h11.944c1.982 0 3.697 1.06 4.585 2.833.339.68.523 1.39.55 2.101 0 .99-.386 2.402-1.035 3.266l-2.173 2.898a16.994 16.994 0 0 0-5.33-.851C7.663 27.58 0 35.243 0 44.663c0 9.42 7.664 17.084 17.083 17.084 9.42 0 17.084-7.664 17.084-17.084 0-.386-.014-.765-.038-1.144a12.012 12.012 0 0 0 4.483-3.64S50.946 23.5 51.014 23.392a15.544 15.544 0 0 1 4.19-3.475l2.907 9.082c-6.041 2.634-10.274 8.665-10.274 15.665 0 9.42 7.663 17.084 17.083 17.084 9.42 0 17.083-7.664 17.083-17.084S74.34 27.58 64.92 27.58l-.003.003ZM73.458 10.5c.94 0 1.709.765 1.709 1.708v6.834c0 .943-.77 1.708-1.709 1.708a5.131 5.131 0 0 1-5.125-5.125c0-2.826 2.3-5.125 5.125-5.125ZM17.083 58.333c-7.537 0-13.666-6.13-13.666-13.666C3.417 37.129 9.547 31 17.083 31c1.066 0 2.112.123 3.133.362l-3.83 5.105a5.104 5.104 0 0 0-.481 5.367 5.096 5.096 0 0 0 4.581 2.833h8.556c.574 0 1.144-.041 1.705-.123v.123c0 7.537-6.127 13.666-13.664 13.666Zm18.795-20.5a8.6 8.6 0 0 1-6.836 3.417h-8.556c-.66 0-1.23-.352-1.527-.943a1.685 1.685 0 0 1 .164-1.79l8.2-10.934a8.574 8.574 0 0 0 1.541-3.416h17.261L35.878 37.833Zm29.039 20.5c-7.538 0-13.667-6.13-13.667-13.666 0-5.48 3.239-10.216 7.906-12.393l4.13 12.912a1.714 1.714 0 0 0 2.15 1.107 1.707 1.707 0 0 0 1.107-2.146l-4.134-12.915c.813-.15 1.65-.232 2.504-.232 7.537 0 13.667 6.13 13.667 13.667s-6.126 13.666-13.663 13.666Z"/>
</symbol><symbol id="ok" viewBox="0 0 22 22">
    <path d="M11 22C4.9 22 0 17.1 0 11S4.9 0 11 0s11 4.9 11 11-4.9 11-11 11zm0-20c-5 0-9 4-9 9s4 9 9 9 9-4 9-9-4-9-9-9zM9.5 15c-.3 0-.5-.1-.7-.3l-3-3c-.4-.4-.4-1 0-1.4s1-.4 1.4 0l2.3 2.3 5.3-5.3c.4-.4 1-.4 1.4 0s.4 1 0 1.4l-6 6c-.2.2-.4.3-.7.3z"/>
</symbol><symbol id="preloader" viewBox="0 0 200 200">
    <radialGradient id="a" cx=".66" fx=".66" cy=".313" fy=".313" gradientTransform="scale(1.5)">
        <stop offset="0" stop-color="#FF156D"/>
        <stop offset=".3" stop-color="#FF156D" stop-opacity=".9"/>
        <stop offset=".6" stop-color="#FF156D" stop-opacity=".6"/>
        <stop offset=".8" stop-color="#FF156D" stop-opacity=".3"/>
        <stop offset="1" stop-color="#FF156D" stop-opacity="0"/>
    </radialGradient>
    <circle transform-origin="center" stroke-width="15" stroke-linecap="round" stroke-dasharray="200 1000" cx="100" cy="100" r="70">
        <animateTransform type="rotate" attributeName="transform" calcMode="spline" dur="2" values="360;0" keyTimes="0;1" keySplines="0 0 1 1" repeatCount="indefinite"/>
    </circle>
    <circle transform-origin="center" opacity=".2" stroke-width="15" stroke-linecap="round" cx="100" cy="100" r="70"/>
</symbol><symbol id="select_arrow" viewBox="0 0 14 8">
    <path d="M7 8c-.3 0-.5-.1-.7-.3l-6-6C-.1 1.3-.1.7.3.3s1-.4 1.4 0L7 5.6 12.3.3c.4-.4 1-.4 1.4 0s.4 1 0 1.4l-6 6c-.2.2-.4.3-.7.3z"/>
</symbol><symbol id="star">
    <path d="M10.577 2.22c.341-.821 1.505-.821 1.846 0l2.017 4.847a1 1 0 0 0 .843.613l5.233.42c.887.07 1.246 1.177.57 1.756L17.1 13.27a1 1 0 0 0-.323.992l1.219 5.106c.206.866-.735 1.55-1.494 1.086l-4.48-2.737a1 1 0 0 0-1.043 0l-4.48 2.737c-.76.464-1.7-.22-1.495-1.085l1.219-5.107a1 1 0 0 0-.323-.992L1.913 9.856c-.675-.579-.316-1.685.57-1.756l5.234-.42a1 1 0 0 0 .844-.613l2.016-4.847Z" stroke-width="2"/>
</symbol></svg>